<svg xmlns="http://www.w3.org/2000/svg" viewBox="0 0 180 180">
  <rect width="180" height="180" rx="40" fill="#fff7f2"/>
  <path d="M31 111c28-30 54-44 80-43 17 0 30 7 40 20" fill="none" stroke="#98c9d8" stroke-width="8" stroke-linecap="round" stroke-dasharray="1 14"/>
  <circle cx="44" cy="116" r="11" fill="#f6a6a1"/>
  <circle cx="140" cy="81" r="11" fill="#75b7c5"/>
  <path d="M99 55l53 19c4 1 5 7 1 9l-21 12 4 23c1 4-4 7-7 4l-18-14-21 12c-4 2-8-2-6-6l9-21-20-15c-3-3-1-8 3-8l25 1 12-14c3-3 8-2 8 3v18" fill="#243047"/>
</svg>
